<svg xmlns="http://www.w3.org/2000/svg" viewBox="0 0 800 450" preserveAspectRatio="xMidYMid slice">
  <defs>
    <linearGradient id="sky" x1="0" y1="0" x2="0" y2="1"><stop offset="0" stop-color="#CFE3FF"/><stop offset="0.55" stop-color="#E9E2F7"/><stop offset="1" stop-color="#F6EFF8"/></linearGradient>
    <filter id="halo" x="-100%" y="-100%" width="300%" height="300%"><feGaussianBlur stdDeviation="18"/></filter>
    <filter id="cloud" x="-20%" y="-50%" width="140%" height="200%"><feGaussianBlur stdDeviation="5"/></filter>
  </defs>
  <rect width="800" height="450" fill="url(#sky)"/>
  
  <circle cx="668" cy="90" r="56" fill="#FFD97A" opacity="0.45" filter="url(#halo)"/>
  <circle cx="668" cy="90" r="36" fill="#FFD97A"/>
  <rect x="48" y="63" width="144" height="48" rx="24" fill="#FFFFFF" opacity="0.85" filter="url(#cloud)"/><rect x="240" y="36" width="112" height="37" rx="18.5" fill="#FFFFFF" opacity="0.85" filter="url(#cloud)"/><rect x="360" y="117" width="96" height="32" rx="16" fill="#FFFFFF" opacity="0.85" filter="url(#cloud)"/>
  <path d="M0 300 C 150 230, 300 260, 450 235 S 700 200, 800 250 V450 H0 Z" fill="#B7D3AE"/><path d="M0 340 C 120 300, 280 330, 420 300 S 680 280, 800 320 V450 H0 Z" fill="#93BF8C"/><path d="M0 400 C 200 360, 400 400, 600 370 S 760 380, 800 390 V450 H0 Z" fill="#6E9E7C"/>
</svg>
