<svg xmlns="http://www.w3.org/2000/svg" viewBox="0 0 80 124" role="img" aria-label="A lit lantern"><defs><radialGradient id="glow-d1"><stop offset="0" stop-color="#FFD68C" stop-opacity="0.44"/><stop offset="0.55" stop-color="#FFD68C" stop-opacity="0.13"/><stop offset="1" stop-color="#FFD68C" stop-opacity="0"/></radialGradient><linearGradient id="glass-d1" x1="0" y1="0" x2="0" y2="1"><stop offset="0" stop-color="#FFE9B0"/><stop offset="1" stop-color="#FFC061"/></linearGradient></defs><circle cx="40" cy="63" r="52" fill="url(#glow-d1)"/><ellipse cx="40" cy="110" rx="40" ry="9" fill="#FFD68C" opacity="0.16"/><path d="M30 19C30 7 50 7 50 19" fill="none" stroke="#4A3B30" stroke-width="3.4" stroke-linecap="round"/><rect x="36" y="16" width="8" height="7" rx="2.4" fill="#4A3B30"/><rect x="14" y="22" width="52" height="11" rx="5.5" fill="#4A3B30"/><rect x="21" y="33" width="38" height="60" rx="13" fill="url(#glass-d1)"/><rect x="21" y="33" width="38" height="60" rx="13" fill="none" stroke="#4A3B30" stroke-width="3.2"/><path d="M40 77C32.5 70 33.5 60.5 40 53C46.5 60.5 47.5 70 40 77Z" fill="#FFF6DC"/><path d="M40 72C36.5 68 37 63 40 59C43 63 43.5 68 40 72Z" fill="#FFFFFF" opacity="0.85"/><rect x="14" y="93" width="52" height="11" rx="5.5" fill="#4A3B30"/><rect x="21" y="104" width="8" height="6" rx="2" fill="#4A3B30"/><rect x="51" y="104" width="8" height="6" rx="2" fill="#4A3B30"/></svg>
